<svg xmlns="http://www.w3.org/2000/svg" viewBox="0 0 150 150">
<!-- SVG created with Arrow, by QuiverAI (https://quiver.ai) -->
  <style type="text/css">.cls-0 {fill:url(#SVGID_1_);}
.cls-1 {fill:url(#SVGID_2_);}
.cls-2 {fill:url(#SVGID_3_);}
.cls-3 {fill:url(#SVGID_4_);}
.cls-4 {fill:url(#SVGID_5_);}
.cls-5 {fill:url(#SVGID_6_);}
.cls-6 {fill:url(#SVGID_7_);}
.cls-7 {fill:url(#SVGID_8_);}
.cls-8 {fill:url(#SVGID_9_);}</style>
  <linearGradient id="SVGID_1_" x1="25.8" x2="17.1" y1="98.07" y2="71.78" gradientUnits="userSpaceOnUse">
    <stop stop-color="#1CADBA" offset="0"/>
    <stop stop-color="#18A9B5" offset="1"/>
  </linearGradient>
  <path class="cls-0" d="m31.2 80.7c-4.1-0.7-8.1-2.1-11.2-4.4-2.8-1.9-4.7-4.7-9.2-4.7-6.6 0.1-9.7 6.7-6.6 12.8 1.9 2.7 9.6 9.7 21 12.2l6.5 1.2 1.1-16.7-1.6-0.4z"/>
  <linearGradient id="SVGID_2_" x1="60.07" x2="51.84" y1="76.89" y2="97.96" gradientUnits="userSpaceOnUse">
    <stop stop-color="#2FB4BF" offset="0"/>
    <stop stop-color="#2FACC2" offset="1"/>
  </linearGradient>
  <path class="cls-1" d="m46.1 81.1c4.5-0.5 9-1.6 11.2-2.4-3.3 6.2-0.3 11.2 0 12.3l3 4c-2.6 0.8-6.3 1.6-10.2 2.4l-4.3-4.3 0.3-12z"/>
  <linearGradient id="SVGID_3_" x1="41.26" x2="74.84" y1="46.05" y2="120.5" gradientUnits="userSpaceOnUse">
    <stop stop-color="#7BDFBD" offset="0"/>
    <stop stop-color="#57D9D1" offset=".4831"/>
    <stop stop-color="#36A3CE" offset="1"/>
  </linearGradient>
  <path class="cls-2" d="m69.9 32.9c-21.3 0-39.8 19.3-41.5 46-1.4 25.4 14.5 48 41.5 48 11.6 0 19.5-3.6 25.8-8 4.6-2.9 10.1-8.5 12.4-11.5-4.5-2.8-14.8 2.4-14.8 2.4-4.6 2.7-9.8 4.6-15.5 5.3-15 1.5-27.7-10.3-31.2-25-2.5-10.3 2-35.9 19.1-46l10.3-5 20.6 14.2c0-4.2-4.8-20.4-26.7-20.4z"/>
  <linearGradient id="SVGID_4_" x1="108.8" x2="80.8" y1="108.7" y2="81.92" gradientUnits="userSpaceOnUse">
    <stop stop-color="#36A3CE" offset="0"/>
    <stop stop-color="#2F9EBF" offset="1"/>
  </linearGradient>
  <path class="cls-3" d="m118.9 87.4c-2.5 7.2-5.5 11.9-9.4 17.6-2.1 3.1-5.9 6.9-9.2 9.9-7.2 5.7-16.2 12-29.7 12l8.8-12c15-1 30.4-10 39.5-27.5z"/>
  <linearGradient id="SVGID_5_" x1="54.94" x2="92.53" y1="66.78" y2="66.78" gradientUnits="userSpaceOnUse">
    <stop stop-color="#F89541" offset="0"/>
    <stop stop-color="#FFB248" offset="1"/>
  </linearGradient>
  <path class="cls-4" d="m55.4 55.5c2.7-4.1 9.5-13.9 22.3-14.4 9.4-0.4 18.1 5.3 19.2 14 1.1 8.2-2.8 14.4-6.2 19.3l-12.9-3.3c2.2-3.3 4.3-10.1 1.1-17.2-2.5-3.8-8.2-5.8-15.5-2.9-3.4 1.3-8 4.9-11 10.1l-2.3 4.3 5.3-9.9z"/>
  <linearGradient id="SVGID_6_" x1="81.03" x2="64.89" y1="50.36" y2="87.08" gradientUnits="userSpaceOnUse">
    <stop stop-color="#FFAD48" offset="0"/>
    <stop stop-color="#B7BF77" offset=".4883"/>
    <stop stop-color="#57DDCF" offset="1"/>
  </linearGradient>
  <path class="cls-5" d="m57.1 78.9c8.7-3.3 21.8-9.5 22.9-18.8 0.6-7.7-7.4-12-16.9-8.7 6.3-5.3 14-10.3 20.5-9.5l7.1 3.1c3.4 2.4 6.4 5.9 6.2 12.4 0 10-7 24.7-30 34.7l-6.6 2.9c-0.9-2.7-6.7-5.6-3.4-16.1"/>
  <linearGradient id="SVGID_7_" x1="78.34" x2="116.2" y1="116" y2="44.66" gradientUnits="userSpaceOnUse">
    <stop stop-color="#F88C41" offset="0"/>
    <stop stop-color="#FFBE5A" offset="1"/>
  </linearGradient>
  <path class="cls-6" d="m118.1 47.4c-4.7 12.5-10.2 31.5-22.3 45.7-5.2 6.3-13.2 14.8-24 16.5-8.4 0.5-13.8-1.8-19.4-8 3.2 4.7 7.5 8 10.7 10 4.3 2 9.5 4.5 18 4 15.3-1.2 31.2-11.5 38.4-28.5 2.9-7 7.5-19.5 9.9-35.3 0.7-6.2-7.6-11.2-11.3-4.4z"/>
  <linearGradient id="SVGID_8_" x1="125.9" x2="138.2" y1="31.36" y2="31.36" gradientUnits="userSpaceOnUse">
    <stop stop-color="#F89541" offset="0"/>
    <stop stop-color="#FFAD40" offset="1"/>
  </linearGradient>
  <path class="cls-7" d="m130.3 23.8c-1.7 1.1-2.9 11.3-2.7 13.8 0.3 1.8 2.4 1.4 3 0.7 2.8-3.5 5.2-6.9 7-9.4 1.3-4.3-2.6-7.3-7.3-5.1z"/>
  <linearGradient id="SVGID_9_" x1="111.7" x2="120.8" y1="31.45" y2="31.45" gradientUnits="userSpaceOnUse">
    <stop stop-color="#69DAC3" offset="0"/>
    <stop stop-color="#3DBDCC" offset="1"/>
  </linearGradient>
  <path class="cls-8" d="m113.4 25.9c-1.5 1.5-2.1 3.5 0 5.9 2 2.3 5 6.3 6.2 6.1 0.8 0 1.2-0.8 1.2-1.5 0-3-0.9-7.5-1.7-9.5-1-2.5-4.1-3.1-5.7-1z"/>
  <linearGradient id="SVGID_10_" x1="101.9" x2="114.2" y1="42.48" y2="42.48" gradientUnits="userSpaceOnUse">
    <stop stop-color="#2992BD" offset="0"/>
    <stop stop-color="#3499C6" offset="1"/>
  </linearGradient>
  <path d="m102.1 42.4c0 2.6 1.8 3.5 3.8 3.4l7.5-0.9c1-0.3 1.7-1.9-0.5-3.1l-6.3-2.7c-2.2-0.7-4 1-4.5 3.3z" fill="url(#SVGID_10_)"/>
  <linearGradient id="SVGID_11_" x1="134.7" x2="147.6" y1="41.75" y2="41.75" gradientUnits="userSpaceOnUse">
    <stop stop-color="#F89541" offset="0"/>
    <stop stop-color="#FFBD54" offset="1"/>
  </linearGradient>
  <path d="m135.6 42.1c-1.2 0.8-2.2 2.9 1 3.3l7.8-0.1c5-0.4 4.2-7.9-0.8-7.4-1.5 0.2-4.7 2-8 4.2z" fill="url(#SVGID_11_)"/>
  <linearGradient id="SVGID_12_" x1="133.5" x2="142.2" y1="53.32" y2="59.3" gradientUnits="userSpaceOnUse">
    <stop stop-color="#2992BD" offset="0"/>
    <stop stop-color="#3DAFCA" offset="1"/>
  </linearGradient>
  <path d="m134.1 52.8c-1.7 0-1 2.3-0.2 3.6l3 5c4.7 4.7 9.7-2.8 4.5-5.5-2-1-6-3.1-7.3-3.1z" fill="url(#SVGID_12_)"/>
</svg>